<?xml version="1.0" encoding="utf-8"?>
<!-- Svg Vector Icons : http://www.onlinewebfonts.com/icon -->
<!DOCTYPE svg PUBLIC "-//W3C//DTD SVG 1.1//EN" "http://www.w3.org/Graphics/SVG/1.1/DTD/svg11.dtd">
<svg version="1.1" xmlns="http://www.w3.org/2000/svg" xmlns:xlink="http://www.w3.org/1999/xlink" x="0px" y="0px" viewBox="0 0 1000 1000" enable-background="new 0 0 1000 1000" xml:space="preserve">
<metadata> Svg Vector Icons : http://www.onlinewebfonts.com/icon </metadata>
<g><path d="M500,10C229.4,10,10,229.4,10,500c0,270.6,219.4,490,490,490c270.6,0,490-219.4,490-490C990,229.4,770.6,10,500,10L500,10z M500,949.2C251.9,949.2,50.8,748.1,50.8,500C50.8,251.9,251.9,50.8,500,50.8c248.1,0,449.2,201.1,449.2,449.2C949.2,748.1,748.1,949.2,500,949.2L500,949.2z"/><path d="M574.7,531.8c56.5-27.2,95.4-84.3,95.4-150.4c0-92.4-76.2-167.3-170.1-167.3c-94,0-170.1,74.9-170.1,167.3c0,66.1,38.9,123.2,95.4,150.4c-104.5,31.4-180.5,127-180.5,240.1c0,7.7,6.3,13.9,14.2,13.9c7.8,0,14.2-6.2,14.2-13.9c0-123.2,101.6-223.1,226.9-223.1c125.3,0,226.9,99.9,226.9,223.1c0,7.7,6.3,13.9,14.2,13.9c7.8,0,14.2-6.2,14.2-13.9C755.2,658.8,679.2,563.3,574.7,531.8L574.7,531.8z M500,520.9c-1.6,0-3.1,0-4.6,0.1c-76.2-2.4-137.3-63.9-137.3-139.5c0-77.1,63.5-139.6,141.9-139.6s141.9,62.5,141.9,139.6c0,75.5-61.1,137.1-137.3,139.5C503.1,520.9,501.5,520.9,500,520.9L500,520.9z"/></g>
</svg>